<svg xmlns="http://www.w3.org/2000/svg" xmlns:xlink="http://www.w3.org/1999/xlink" x="0px" y="0px" width="16px" height="16px" viewBox="0 0 16 16"><g transform="translate(0, 0)"><circle data-color="color-2" fill="#ffffff" cx="8" cy="13.5" r="1.5"></circle>
<path fill="#ffffff" d="M8,0C6.309,0,4.792,1.072,4.229,2.667L3.895,3.609L5.78,4.276l0.333-0.943C6.396,2.536,7.154,2,8,2
	c1.103,0,2,0.897,2,2c0,0.632-0.245,0.839-0.952,1.347C8.184,5.967,7,6.817,7,9v1h2V9c0-1.157,0.482-1.503,1.214-2.028
	C10.968,6.431,12,5.69,12,4C12,1.794,10.206,0,8,0z"></path></g></svg>